<svg viewBox="0 0 730 594" fill="none" xmlns="http://www.w3.org/2000/svg">
    <g clip-path="url(#clip0_13_189)">
        <path
                d="M551.71 0C462.64 0 388.67 65.87 375.92 151.45C372.34 150.31 368.29 149.63 363.78 149.8C360.12 149.95 356.71 150.66 353.58 151.76C340.96 66.03 266.93 0 177.75 0C79.74 0 0 79.74 0 177.75C0 275.76 79.74 355.5 177.75 355.5C275.76 355.5 355.5 275.76 355.5 177.75C355.5 177.64 355.5 177.53 355.5 177.41C357.26 175.6 360.38 173.2 364.75 173.02C368.88 172.88 372.06 174.79 374.01 176.41C374.01 176.86 373.98 177.3 373.98 177.75C373.98 275.76 453.72 355.5 551.73 355.5C649.74 355.5 729.48 275.76 729.48 177.75C729.48 79.74 649.72 0 551.71 0ZM177.75 332.41C92.47 332.41 23.09 263.03 23.09 177.75C23.09 92.47 92.46 23.08 177.75 23.08C263.04 23.08 332.41 92.46 332.41 177.74C332.41 263.02 263.03 332.4 177.75 332.4V332.41ZM551.71 332.41C466.43 332.41 397.05 263.03 397.05 177.75C397.05 92.47 466.43 23.08 551.71 23.08C636.99 23.08 706.37 92.46 706.37 177.74C706.37 263.02 636.99 332.4 551.71 332.4V332.41Z" fill="currentColor"/>
        <path d="M219.3 136.2H136.2V219.3H219.3V136.2Z" fill="currentColor"/>
        <path
                d="M634.81 219.3C657.757 219.3 676.36 200.697 676.36 177.75C676.36 154.803 657.757 136.2 634.81 136.2C611.863 136.2 593.26 154.803 593.26 177.75C593.26 200.697 611.863 219.3 634.81 219.3Z" fill="currentColor"/>
        <path
                d="M535.85 427.51C535.85 427.51 535.9 427.45 535.93 427.42C536.1 427.22 536.27 427.01 536.44 426.81C539.17 423.52 541.54 420.49 543.56 417.79C543.71 417.59 543.86 417.39 544 417.19C544.91 415.97 545.75 414.81 546.51 413.74C546.56 413.67 546.62 413.59 546.67 413.52C547.48 412.38 548.19 411.34 548.83 410.41C548.93 410.26 549.02 410.13 549.12 409.98C549.61 409.25 550.05 408.58 550.43 408C550.54 407.83 550.66 407.65 550.76 407.5C551.14 406.9 551.48 406.36 551.72 405.98L531.93 393.78C531.84 393.92 531.64 394.24 531.39 394.63C531.34 394.71 531.31 394.76 531.25 394.84C529.7 397.23 525.69 403.15 519.25 410.91C516.52 414.2 513.38 417.8 509.78 421.62C507.84 423.68 505.81 425.78 503.62 427.93C483.71 447.5 453.37 470.16 412.84 480.79C408.58 481.91 404.23 482.91 399.74 483.74C395.96 484.44 392.07 485 388.13 485.49C387.29 485.59 386.45 485.69 385.61 485.78C385.48 485.79 385.35 485.8 385.22 485.81C384.95 485.84 384.67 485.86 384.4 485.89C380.74 486.27 377.04 486.59 373.23 486.75C270.08 490.94 209.66 410.18 207.14 406.74L194.64 415.9L188.39 420.48C189.36 421.81 191.48 424.59 194.64 428.33C213.78 451.02 272.55 510.16 365.16 510.16C368.13 510.16 371.15 510.1 374.19 509.97C377.86 509.82 381.46 509.57 385.02 509.25C385.56 509.2 386.08 509.12 386.61 509.07C389.67 508.77 392.7 508.43 395.67 508C395.94 507.96 396.2 507.91 396.47 507.87C399.61 507.41 402.7 506.9 405.74 506.32L471.02 571.61C485.42 586.01 504.34 593.21 523.25 593.21C542.16 593.21 561.08 586.01 575.49 571.61C604.29 542.81 604.29 495.94 575.49 467.14L535.86 427.51H535.85ZM559.15 555.28C539.35 575.08 507.13 575.08 487.33 555.28L431.67 499.62C470.79 486.77 500.2 464.32 520.2 444.5L559.15 483.45C578.94 503.25 578.95 535.47 559.15 555.27V555.28Z" fill="currentColor"/>
    </g>
    <defs>
        <clipPath id="clip0_13_189">
            <rect width="729.46" height="593.21" fill="currentColor"/>
        </clipPath>
    </defs>
</svg>
